<svg width="28" height="29" viewBox="0 0 28 29" fill="none" xmlns="http://www.w3.org/2000/svg">
<path d="M10.7129 22.75C10.9645 22.75 11.2147 22.7874 11.4551 22.8613L11.6924 22.9482C11.9252 23.0462 12.1428 23.1784 12.3379 23.3408L12.5254 23.5137C12.705 23.696 12.8577 23.9042 12.9775 24.1318L13.0859 24.3652C13.2163 24.6848 13.2842 25.0282 13.2842 25.375C13.2842 25.6351 13.2458 25.893 13.1719 26.1406L13.0859 26.3848C12.9882 26.6243 12.857 26.8471 12.6963 27.0459L12.5254 27.2363C12.3458 27.4186 12.142 27.5728 11.9199 27.6934L11.6924 27.8018C11.3816 27.9325 11.0484 28 10.7129 28L10.4609 27.9873C9.95929 27.9368 9.48151 27.7368 9.08887 27.4102L8.90039 27.2363C8.41657 26.7452 8.1416 26.076 8.1416 25.375C8.1416 24.7618 8.352 24.1727 8.72852 23.7061L8.90039 23.5137C9.38371 23.023 10.036 22.75 10.7129 22.75ZM20.2354 22.75C20.4869 22.75 20.7372 22.7874 20.9775 22.8613L21.2148 22.9482C21.448 23.0463 21.6661 23.1781 21.8613 23.3408L22.0488 23.5137C22.2283 23.6959 22.3802 23.9044 22.5 24.1318L22.6094 24.3652C22.7398 24.6848 22.8066 25.0282 22.8066 25.375C22.8066 25.6351 22.7692 25.8931 22.6953 26.1406L22.6094 26.3848C22.5116 26.6244 22.3795 26.847 22.2188 27.0459L22.0488 27.2363C21.8692 27.4187 21.6646 27.5728 21.4424 27.6934L21.2148 27.8018C20.904 27.9325 20.5709 28 20.2354 28L19.9834 27.9873C19.3984 27.9284 18.8458 27.6657 18.4229 27.2363C17.9391 26.7452 17.665 26.0759 17.665 25.375C17.665 24.7616 17.8753 24.1728 18.252 23.7061L18.4229 23.5137C18.9061 23.0231 19.5585 22.7501 20.2354 22.75ZM1.19043 1H1.77539L1.98242 1.00879C2.39473 1.04322 2.79347 1.1791 3.14453 1.40527L3.31641 1.52539C3.70662 1.82447 4.00527 2.23122 4.17773 2.69727L4.24414 2.90039L4.86523 5.10449L5.07129 5.83301H25.6201L25.7861 5.84375C25.8966 5.85755 26.0051 5.88514 26.1094 5.92578L26.2617 5.99609C26.46 6.10304 26.631 6.25852 26.7588 6.4502C26.8548 6.5942 26.9239 6.75514 26.9629 6.9248L26.9922 7.09668C27.0107 7.27117 26.9969 7.44695 26.9531 7.61523L26.8994 7.78027L23.3906 16.6875C23.222 17.1154 22.9469 17.4882 22.5957 17.7705L22.4404 17.8857C22.0152 18.1779 21.5154 18.3331 21.0049 18.333H10.127L9.91992 18.3252C9.50748 18.2911 9.10815 18.1557 8.75684 17.9297L8.58594 17.8086C8.19538 17.5097 7.89545 17.1038 7.72266 16.6377L7.65723 16.4346L3.88086 3.02344H3.88184C3.76927 2.62246 3.54608 2.26133 3.23828 1.98242L3.10059 1.86816C2.76881 1.6135 2.37208 1.4599 1.95703 1.4248L1.77734 1.41699H1.19043C1.16758 1.41699 1.14413 1.4126 1.12207 1.40332L1.06055 1.36133C1.02319 1.32337 1 1.26803 1 1.20801L1.00391 1.16406C1.00955 1.13574 1.02113 1.10969 1.03613 1.08691L1.06055 1.05566C1.09744 1.01822 1.14483 1 1.19043 1Z" stroke="#B57EC1" stroke-width="2"/>
</svg>
