<svg width="200" height="200" viewBox="0 0 200 200" fill="none" xmlns="http://www.w3.org/2000/svg">
<rect y="42.2272" width="163.153" height="163.153" rx="36" transform="rotate(-15 0 42.2272)" fill="#502E7B"/>
<path d="M85.7074 58.523C85.2444 59.0216 85.2444 59.0928 86.206 62.8678C86.7402 65.0046 87.2743 66.8921 87.4168 67.1414C87.951 68.2098 90.159 67.7468 90.159 66.5716C90.159 65.5744 88.3071 58.7011 87.951 58.345C87.4168 57.8108 86.2772 57.9176 85.7074 58.523Z" fill="#B3B964"/>
<path d="M100.416 58.345C100.059 58.7011 98.2075 65.5744 98.2075 66.5716C98.2075 67.7468 100.416 68.1742 100.95 67.1414C101.092 66.9277 101.591 65.0046 102.161 62.8678C103.122 59.0928 103.122 59.0216 102.659 58.523C102.125 57.9176 100.95 57.8108 100.416 58.345Z" fill="#B3B964"/>
<path d="M73.3849 70.489C72.9219 70.952 72.8507 72.1985 73.3137 72.5546C73.8122 72.9463 80.6143 75.9022 81.0773 75.9022C82.0389 75.9022 82.858 74.0503 82.1813 73.3737C81.754 72.9463 74.9875 70.0973 74.3821 70.0973C74.0259 70.0973 73.5986 70.2754 73.3849 70.489Z" fill="#B3B964"/>
<path d="M109.853 71.6286C108.001 72.4477 106.327 73.2312 106.221 73.3737C105.58 74.0147 106.363 75.9022 107.289 75.9022C107.752 75.9022 114.59 72.9819 115.088 72.5546C115.516 72.1628 115.48 70.952 114.981 70.489C114.34 69.848 113.414 70.0616 109.853 71.6286Z" fill="#B3B964"/>
<path d="M91.9037 74.8338C91.4051 75.1187 90.7285 75.7954 90.3723 76.4364L89.7313 77.5404L89.6601 92.1418C89.6245 105.782 89.5532 106.743 89.1615 106.565C82.7511 104.464 78.7981 104.179 75.949 105.603C75.2012 105.995 74.3465 106.672 74.0259 107.135C71.7823 110.554 73.4205 114.507 77.979 116.537C81.6827 118.175 82.5018 118.602 83.962 119.671C87.2028 121.95 90.1943 126.045 90.7641 128.859C90.9065 129.607 93.1501 137.157 94.3254 140.789L94.7171 142H107.253H119.824L121 134.735C122.21 127.47 123.101 123.944 124.383 121.416C126.163 117.89 126.84 114.079 126.591 109.307C126.413 105.603 125.914 103.182 124.988 101.366C124.098 99.5849 122.816 98.837 120.465 98.6233C118.863 98.4809 118.792 98.4809 117.26 96.9139C114.518 94.1361 111.598 93.317 108.321 94.3854L106.968 94.8483L105.864 93.8156C104.439 92.4979 103.727 92.3554 101.733 92.854C100.843 93.1033 100.059 93.2458 99.9522 93.1389C99.881 93.0677 99.7386 89.5776 99.6673 85.3753C99.5249 77.8253 99.5249 77.7541 98.9195 76.6145C97.9223 74.8694 96.9607 74.3352 94.6459 74.3352C93.3282 74.3708 92.5447 74.5133 91.9037 74.8338Z" fill="#FAEBEB"/>
<path d="M78.1572 84.6274C74.1686 86.1231 73.4919 86.693 74.0261 87.8326C74.5603 88.9722 75.237 88.9366 79.19 87.5121C82.7157 86.23 83.5704 85.6958 83.5704 84.7698C83.5704 84.3425 82.3952 83.2029 82.0035 83.2385C81.8254 83.2741 80.116 83.8795 78.1572 84.6274Z" fill="#B3B964"/>
<path d="M105.401 83.8439C104.048 85.1972 104.76 85.9095 109.14 87.5121C111.063 88.1887 112.844 88.7585 113.093 88.7585C114.34 88.7585 114.838 86.7998 113.806 86.1231C113.236 85.767 106.576 83.2029 106.184 83.2029C106.113 83.2385 105.757 83.4878 105.401 83.8439Z" fill="#B3B964"/>
</svg>
