<svg width="200" height="200" viewBox="0 0 200 200" fill="none" xmlns="http://www.w3.org/2000/svg">
<rect y="42.2272" width="163.153" height="163.153" rx="36" transform="rotate(-15 0 42.2272)" fill="#502E7B"/>
<path d="M100.625 77.6891C100.625 66.8144 109.44 58 120.312 58C131.185 58 140 66.8144 140 77.6891C140 88.5606 131.185 97.375 120.312 97.375C109.44 97.375 100.625 88.5606 100.625 77.6891ZM111.778 80.1529H118.129L113.406 91.6081L128.957 75.6856H122.265L128.957 64.2305H121.309L111.778 80.1529Z" fill="#B3B964"/>
<path d="M59 121.922C59 119.976 63.8799 118.271 71.1853 117.329C70.3735 118.772 69.9836 120.586 69.9836 122.319C69.9836 122.735 70.0268 123.139 70.0987 123.534C67.0474 124.289 65.5627 125.13 65.114 125.421C61.306 124.482 59 123.259 59 121.922ZM97.26 117.307C98.0614 118.741 98.4531 120.548 98.4531 122.321C98.4531 122.755 98.4078 123.178 98.3299 123.59C101.419 124.295 103.177 125.056 103.79 125.353C107.432 124.422 109.625 123.227 109.625 121.923C109.626 119.96 104.665 118.244 97.26 117.307ZM84.0596 127.102C83.9766 127.134 83.884 127.169 83.784 127.207C82.1405 127.83 79.0811 128.993 76.712 128.993C73.8589 128.993 71.4165 127.22 70.4157 124.721C68.8572 125.107 67.7293 125.51 66.9762 125.837C67.6715 125.976 68.4015 126.106 69.167 126.227C70.1624 126.385 71.5561 127.06 72.2768 127.765L74.0145 129.465C74.7343 130.17 76.1351 130.741 77.1434 130.741H91.7377C92.7456 130.741 94.1512 130.174 94.8763 129.475L96.7141 127.704C97.4404 127.005 98.8382 126.332 99.8331 126.167C100.484 126.06 101.106 125.945 101.704 125.825C100.805 125.507 99.5384 125.124 97.8959 124.755C96.8868 127.236 94.4519 128.993 91.6114 128.993C88.6889 128.993 86.9791 128.578 84.0596 127.102ZM79.9789 104.368C82.5763 103.013 83.1282 98.9371 81.2119 95.2633C79.2957 91.5895 75.6365 89.7101 73.0391 91.065C70.4417 92.4197 69.8898 96.4962 71.8062 100.17C73.7226 103.844 77.3818 105.723 79.9789 104.368ZM71.7017 114.073C74.2986 112.718 74.8496 108.641 72.9326 104.967C71.0157 101.293 67.3563 99.4127 64.7596 100.768C62.1627 102.123 61.6114 106.2 63.5285 109.874C65.4457 113.548 69.1048 115.428 71.7017 114.073ZM87.5299 104.369C90.1273 105.724 93.7868 103.844 95.7033 100.171C97.6191 96.4971 97.0672 92.4206 94.4703 91.0659C91.8729 89.7109 88.214 91.5907 86.2969 95.2645C84.3808 98.9379 84.9329 103.015 87.5299 104.369ZM94.5763 104.968C92.6592 108.642 93.211 112.718 95.808 114.073C98.4049 115.428 102.064 113.548 103.98 109.874C105.897 106.2 105.345 102.123 102.748 100.768C100.152 99.4133 96.4926 101.294 94.5763 104.968ZM75.3219 114.405C75.3219 114.902 75.3734 115.384 75.4589 115.856C72.5888 116.002 71.3347 119.39 71.3347 122.296C71.3347 125.297 73.7669 127.729 76.7677 127.729C79.4822 127.729 83.5929 125.881 84.2184 125.724C87.4405 127.406 88.9801 127.729 91.6687 127.729C94.6692 127.729 97.1017 125.297 97.1017 122.296C97.1017 119.497 96.011 116.183 93.2904 115.888C93.3803 115.407 93.4327 114.912 93.4327 114.405C93.4327 109.976 88.8064 105.35 84.3771 105.35C79.947 105.349 75.3219 109.975 75.3219 114.405ZM99.42 127.608C103.823 126.881 106.859 125.927 108.509 124.758L105.111 137.565C105.111 137.565 101.16 141.669 84.7398 141.669C68.3205 141.669 62.3907 137.413 62.3918 137.412L59.0008 124.762C60.6987 125.963 63.8575 126.936 68.4619 127.668C69.287 127.799 70.5078 128.4 71.0763 128.956L72.8149 130.657C73.7103 131.533 75.3293 132.193 76.5816 132.193H91.1755C92.4251 132.193 94.0468 131.539 94.9458 130.673L96.7853 128.901C97.36 128.349 98.59 127.744 99.42 127.608ZM87.3109 136.135C86.5744 136.135 85.9767 136.135 85.9767 136.135L85.5659 134.868C85.339 134.168 84.9687 134.168 84.7425 134.868C84.514 135.569 84.33 136.135 84.33 136.135H82.9977C82.2615 136.135 82.148 136.487 82.7435 136.92C83.3409 137.353 83.822 137.703 83.822 137.703L83.4112 138.97C83.184 139.671 83.4832 139.888 84.078 139.455C84.6715 139.022 85.1552 138.672 85.1552 138.672L86.2327 139.455C86.8274 139.888 87.1263 139.671 86.8996 138.97C86.6716 138.27 86.4869 137.703 86.4869 137.703L87.5662 136.92C88.1604 136.487 88.0472 136.135 87.3109 136.135Z" fill="#FAEBEB"/>
</svg>
