<svg width="200" height="200" viewBox="0 0 200 200" fill="none" xmlns="http://www.w3.org/2000/svg">
<rect y="42.2271" width="163.153" height="163.153" rx="36" transform="rotate(-15 0 42.2271)" fill="#502E7B"/>
<path d="M101.5 118.458C116.159 118.458 128.042 106.575 128.042 91.9165C128.042 77.258 116.159 65.3749 101.5 65.3749C86.8416 65.3749 74.9585 77.258 74.9585 91.9165C74.9585 106.575 86.8416 118.458 101.5 118.458Z" fill="#B3B964"/>
<path d="M92.4081 85.1414C91.9111 79.6096 87.6451 74.4549 85.5742 72.5691L84.4302 71.5907C89.0446 67.7115 94.9989 65.3749 101.499 65.3749C107.374 65.3749 112.803 67.2835 117.199 70.5145C117.821 72.4003 116.638 76.3408 115.395 78.2266C114.945 78.9097 113.924 79.7578 112.806 80.5616C110.283 82.3742 107.099 83.2707 105.481 86.6082C105.018 87.5623 105.037 88.4949 105.26 89.3055C105.42 89.8883 105.522 90.5219 105.524 91.1415C105.529 93.145 103.503 94.5927 101.499 94.5707C96.2858 94.5138 92.8727 90.3122 92.4081 85.1414ZM105.313 108.575C107.936 103.633 116.678 103.633 116.678 103.633C125.787 103.538 127.018 98.0075 127.84 95.2119C126.368 107.106 117.026 116.561 105.186 118.206C104.33 116.404 103.316 112.34 105.313 108.575Z" fill="#FAEBEB"/>
<path fill-rule="evenodd" clip-rule="evenodd" d="M124.263 59.6867C125.31 58.5164 127.108 58.4168 128.278 59.4643C136.856 67.141 142.26 78.3061 142.26 90.7298C142.26 112.537 125.619 130.458 104.344 132.486V134.573H109.083C110.654 134.573 111.927 135.846 111.927 137.417C111.927 138.987 110.654 140.26 109.083 140.26H93.9165C92.346 140.26 91.0728 138.987 91.0728 137.417C91.0728 135.846 92.346 134.573 93.9165 134.573H98.6561V132.645C86.899 132.188 76.3814 126.889 69.0476 118.695C68.0001 117.525 68.0997 115.727 69.27 114.68C70.4403 113.632 72.2381 113.732 73.2855 114.902C79.929 122.325 89.5744 126.989 100.313 126.989C120.339 126.989 136.573 110.755 136.573 90.7298C136.573 79.9911 131.908 70.3457 124.486 63.7022C123.315 62.6548 123.215 60.857 124.263 59.6867Z" fill="#FAEBEB"/>
</svg>
