<svg width="200" height="200" viewBox="0 0 200 200" fill="none" xmlns="http://www.w3.org/2000/svg">
<rect y="42.2272" width="163.153" height="163.153" rx="36" transform="rotate(-15 0 42.2272)" fill="#502E7B"/>
<path d="M139.6 115.924C139.342 115.612 138.985 115.397 138.588 115.314C138.191 115.231 137.777 115.285 137.415 115.468C135.963 116.217 132.478 118.411 128.624 121.154C121.492 126.224 113.187 129.397 104.49 130.374C103.517 130.489 102.533 130.271 101.699 129.755C100.865 129.239 100.231 128.456 99.8993 127.534L99.3544 126.015C99.1547 125.466 99.0689 124.881 99.1021 124.297C99.1353 123.713 99.2869 123.142 99.5477 122.619C99.8033 122.097 100.163 121.632 100.604 121.253C101.045 120.874 101.559 120.589 102.114 120.416C105.69 119.278 108.507 117.82 110.174 116.274C108.773 115.79 106.04 115.182 101.081 115.182C98.0991 115.182 94.6385 115.403 90.7987 115.838C90.6459 115.854 79.4524 116.937 73.0282 119.241V132.636C76.1704 133.518 79.8206 134.983 83.9088 137.003C85.4226 137.733 86.9884 138.35 88.5935 138.849C93.6666 140.469 99.8735 141.477 104.792 141.477C105.812 141.477 106.765 141.433 107.634 141.348L108.297 141.284C113.878 140.732 119.117 138.004 123.045 133.608L139.611 118.139C140.114 117.592 140.149 116.6 139.6 115.924ZM59 137.634H69.3449V115.182H59V137.634Z" fill="#FAEBEB"/>
<path d="M110.067 81.2301V101.202C110.251 101.055 110.417 100.944 110.583 100.797C111.558 99.8399 114.835 97.2629 117.081 98.0176C118.756 98.5882 120.007 101.22 120.596 105.399C120.725 106.375 121.572 107.074 122.603 106.982C124.167 106.835 128.935 106.89 130.223 109.062C131.144 110.608 130.297 113.48 127.867 117.18C127.407 117.511 126.947 117.824 126.487 118.155C119.92 122.819 112.286 125.756 104.287 126.696L103.974 126.733C103.698 126.733 103.459 126.549 103.367 126.291L102.815 124.763C102.786 124.68 102.774 124.591 102.78 124.502C102.786 124.413 102.811 124.327 102.852 124.248C102.907 124.138 103.017 123.99 103.238 123.917C107.196 122.665 112.368 120.383 114.54 116.719C114.908 116.094 114.872 115.302 114.448 114.695C113.896 113.958 111.337 111.492 101.085 111.492C97.9553 111.492 94.3658 111.731 90.4083 112.173C90.2242 112.191 88.4939 112.357 86.0641 112.688C86.5979 109.283 88.6412 102.859 96.4275 101.423C98.6179 102.969 102.428 104.46 106.386 103.227V81.2301C105.393 81.9839 104.249 82.5127 103.031 82.7797C101.814 83.0467 100.553 83.0455 99.3358 82.7763C90.9421 81.046 85.4199 73.3149 84.6099 62.1232L84.3154 58.0368L88.4019 58.1104C97.7344 58.3681 104.913 62.0864 108.227 68.0872C111.558 62.0864 118.737 58.3681 128.051 58.1104L132.101 58L131.862 62.068C131.052 73.3149 125.529 81.046 117.117 82.7763C116.51 82.9051 115.884 82.9788 115.258 82.9788C113.362 82.9788 111.54 82.3345 110.067 81.2301Z" fill="#B3B964"/>
</svg>
