<svg width="200" height="200" viewBox="0 0 200 200" fill="none" xmlns="http://www.w3.org/2000/svg">
<rect y="42.2271" width="163.153" height="163.153" rx="36" transform="rotate(-15 0 42.2271)" fill="#502E7B"/>
<path d="M138.767 119.24C138.572 119.203 138.371 119.205 138.176 119.246C137.981 119.287 137.797 119.367 137.632 119.48C137.468 119.593 137.328 119.738 137.219 119.906C137.111 120.074 137.036 120.262 137 120.459C134.71 132.6 126.765 138.952 120.111 138.952H114.24C114.27 136.712 114.255 133.695 114.103 130.084C113.786 122.373 108.115 115.333 103.367 111.661C99.2083 108.446 94.5961 104.362 93.1897 103.097H74.8468L75.3912 134.183C75.3993 134.584 75.2498 134.973 74.9751 135.264C74.7004 135.555 74.3228 135.725 73.9243 135.737C73.2409 135.699 72.5577 135.818 71.9264 136.084C71.2951 136.351 70.7322 136.758 70.2799 137.276C69.376 138.674 68.9658 140.338 69.1155 142H120.111C128.017 142 137.378 134.792 139.974 121.019C140.048 120.622 139.962 120.211 139.736 119.878C139.51 119.544 139.161 119.315 138.767 119.24ZM98.2707 136.612H86.2487C84.8273 136.612 84.3131 139.065 84.298 139.339C84.28 139.733 84.1135 140.106 83.8325 140.38C83.5515 140.655 83.1772 140.811 82.7858 140.818H82.7404C82.3499 140.814 81.9766 140.655 81.7019 140.375C81.4271 140.096 81.2732 139.718 81.2736 139.324C81.2736 138.059 82.4682 133.564 86.2487 133.564H92.9478C91.917 132.547 91.0949 131.335 90.5283 129.998C88.1843 124.467 90.7551 118.265 90.8761 117.991C91.0345 117.619 91.333 117.326 91.7059 117.176C92.0788 117.026 92.4956 117.031 92.8646 117.191C93.2336 117.35 93.5245 117.651 93.6734 118.027C93.8223 118.403 93.8169 118.823 93.6585 119.195C93.6283 119.24 91.4658 124.498 93.3107 128.81C93.8418 129.957 94.6041 130.981 95.5492 131.815C96.4942 132.649 97.6013 133.276 98.8 133.656C99.1354 133.778 99.417 134.016 99.5949 134.328C99.7729 134.64 99.8357 135.005 99.7724 135.359C99.709 135.712 99.5236 136.032 99.2488 136.262C98.9739 136.491 98.6275 136.615 98.2707 136.612ZM73.755 84.3817H69.0566C65.5362 84.3817 60.747 79.8575 60 75.0347L74.009 72.6225C74.253 72.5805 74.4831 72.4788 74.679 72.3263C74.8749 72.1738 75.0306 71.9751 75.1326 71.7478C75.5862 70.7329 77.1937 67.9733 79.1595 67.2571C79.4345 67.1546 79.6791 66.9834 79.8703 66.7595C80.0615 66.5356 80.1932 66.2664 80.2529 65.9771L80.8426 61.2442C80.5508 60.41 80.2105 59.5938 79.8234 58.8L83.0398 60.3847C83.2322 60.4798 83.4023 60.6149 83.5389 60.7812C83.6755 60.9475 83.7755 61.1412 83.8322 61.3493L85.2643 66.5912C85.3609 66.9519 85.5863 67.2638 85.8972 67.4672C86.2081 67.6705 86.5827 67.7509 86.9489 67.6929C87.852 67.6527 88.7355 67.9668 89.4138 68.5691C90.9381 69.8857 91.7531 72.5935 91.7683 76.4015C91.8061 85.3204 92.0934 96.083 92.2068 100.045H74.8634L75.2656 85.9497C75.2715 85.7459 75.2367 85.543 75.1634 85.353C75.09 85.163 74.9795 84.9897 74.8385 84.8435C74.6975 84.6973 74.5288 84.5811 74.3424 84.5018C74.1561 84.4225 73.9558 84.3816 73.7534 84.3817H73.755ZM73.2106 101.569C73.4147 101.568 73.6143 101.629 73.7841 101.743C73.9539 101.857 74.0864 102.02 74.1646 102.21C74.2428 102.4 74.2634 102.609 74.2236 102.81C74.1839 103.012 74.0856 103.197 73.9413 103.343C73.797 103.488 73.6131 103.587 73.4129 103.627C73.2127 103.667 73.0052 103.647 72.8167 103.568C72.6282 103.489 72.4671 103.356 72.3539 103.184C72.2407 103.013 72.1805 102.812 72.1808 102.606C72.1812 102.331 72.2898 102.068 72.4828 101.873C72.6759 101.679 72.9376 101.569 73.2106 101.569Z" fill="#FAEBEB"/>
<path d="M87.2016 82.9242C87.2753 82.9375 87.3562 82.9425 87.4356 82.9454C87.872 82.9611 88.3033 82.8257 88.6618 82.5669C89.086 82.259 89.3642 81.8013 89.4481 81.282C89.5283 80.762 89.4051 80.2416 89.0914 79.8182C89.0091 79.7045 88.9205 79.6049 88.8256 79.5194C88.7155 79.4444 87.8992 78.9287 87.1134 79.6394C87.0001 79.7407 86.8282 79.7345 86.7269 79.6212C86.6292 79.5085 86.6354 79.3366 86.7465 79.2368C86.8209 79.1722 86.894 79.115 86.9678 79.0636C87.7459 78.5227 88.5651 78.7366 89.0129 78.9959C89.0914 78.951 89.1683 78.904 89.2444 78.8511L89.29 78.8194C89.8258 78.4308 90.1729 77.8542 90.2806 77.2023C90.381 76.5491 90.2228 75.895 89.8342 75.3592C89.54 74.9544 89.134 74.6532 88.6674 74.4876L88.6512 74.4827C88.3463 75.2685 87.4867 76.3367 85.8555 76.049C85.7096 76.0247 85.6099 75.8813 85.6327 75.7332C85.6459 75.6596 85.6895 75.597 85.746 75.5577C85.8047 75.517 85.8741 75.5009 85.9478 75.5142C87.7447 75.8221 88.196 74.148 88.2166 74.0756C88.2173 74.0719 88.2194 74.0704 88.2201 74.0667C88.2208 74.063 88.2193 74.0609 88.2199 74.0572C88.2429 73.9928 88.258 73.9404 88.2762 73.8923C88.2823 73.8687 88.2885 73.8451 88.294 73.8252C88.4324 73.3195 88.4626 72.7924 88.3757 72.2919C88.2846 71.762 88.0776 71.2741 87.7615 70.8426C87.0947 69.9297 86.0211 69.3963 84.8908 69.4212C84.8335 69.4223 84.7815 69.4263 84.7242 69.4274C84.6259 69.4344 84.5303 69.3849 84.4757 69.2971C84.4392 69.2354 84.4 69.1789 84.3598 69.1166L84.3274 69.0746C84.2799 69.0109 84.2309 68.945 84.1821 68.8887C83.2923 67.8406 81.7923 67.4682 80.3667 67.9402C80.2864 67.9638 80.2121 67.9961 80.1407 68.0232C79.8128 68.1544 79.515 68.3195 79.2341 68.5276C78.1439 69.4403 77.9103 70.4537 78.5584 71.5344L84.3887 79.9861L84.5534 80.223L85.0809 80.9911L85.0824 80.9933C85.46 81.5689 85.9025 82.122 85.907 82.1285C86.2209 82.5615 86.678 82.8434 87.2016 82.9242ZM86.1687 77.9557C85.7646 78.3204 85.3455 78.4828 84.9321 78.4446C84.3657 78.3903 84.0327 77.9577 84.0206 77.9403C83.9302 77.8194 83.9554 77.6471 84.0726 77.556L84.0813 77.5499C84.1987 77.4684 84.3651 77.4945 84.4548 77.6095C84.4593 77.616 84.6662 77.8719 84.9862 77.9009C85.2385 77.9254 85.5145 77.8077 85.8024 77.5495C85.9136 77.4496 86.087 77.458 86.1884 77.5713C86.2934 77.6853 86.2813 77.8581 86.1687 77.9557ZM84.9118 72.1596C84.9511 71.8776 85.0819 71.6578 85.2038 71.5085C85.3257 71.3593 85.4409 71.2792 85.454 71.2702C85.5779 71.184 85.7473 71.2145 85.8335 71.3384C85.9181 71.4601 85.8876 71.6296 85.7674 71.7164C85.7587 71.7224 85.4937 71.9163 85.4523 72.2416C85.419 72.4905 85.5287 72.7688 85.7732 73.0695C85.8687 73.1837 85.8529 73.3558 85.7366 73.4528C85.6246 73.5467 85.446 73.5355 85.3512 73.4177C85.0036 72.992 84.853 72.5712 84.9118 72.1596ZM80.3323 69.9821C80.3901 69.9355 80.4473 69.8925 80.506 69.8517C80.869 69.5994 81.2319 69.4954 81.5845 69.5436C82.1507 69.6207 82.4647 70.0632 82.4783 70.0828C82.5645 70.2067 82.5318 70.3777 82.4101 70.4623C82.2862 70.5484 82.1167 70.5179 82.0321 70.3962C82.0261 70.3875 81.8301 70.124 81.5084 70.0833C81.2559 70.0493 80.976 70.1568 80.679 70.402C80.5627 70.499 80.3884 70.4848 80.2935 70.3669C80.2002 70.2512 80.2145 70.0769 80.3323 69.9821ZM81.3629 74.0755L81.3716 74.0694C81.489 73.9878 81.6554 74.0139 81.7451 74.129C81.7496 74.1355 81.958 74.3935 82.2795 74.4247C82.5303 74.447 82.8048 74.3271 83.0942 74.0711C83.2054 73.9713 83.3788 73.9796 83.4802 74.093C83.5778 74.2056 83.5694 74.379 83.4583 74.4789C83.0512 74.8393 82.6337 75.0038 82.2203 74.9656C81.6538 74.9113 81.3208 74.4787 81.3088 74.4613C81.219 74.3367 81.2442 74.1644 81.3629 74.0755Z" fill="#B3B964"/>
</svg>
