<svg width="200" height="200" viewBox="0 0 200 200" fill="none" xmlns="http://www.w3.org/2000/svg">
<rect y="42.2272" width="163.153" height="163.153" rx="36" transform="rotate(-15 0 42.2272)" fill="#502E7B"/>
<path d="M100.918 98.7972L92.8718 86.1382C92.4008 85.2306 92.6139 84.1346 93.4032 83.6217C94.3058 83.1455 95.325 83.368 95.8324 84.1554L103.879 96.8907C104.35 97.7983 104.137 98.8947 103.348 99.4073C102.447 99.8432 101.344 99.5476 100.918 98.7972ZM134.699 101.161C135.993 103.518 132.785 105.451 131.283 106.271C129.967 106.168 128.715 106.029 127.525 105.851C126.336 105.673 125.286 105.508 124.375 105.355C123.312 105.152 122.325 104.949 121.415 104.745C121.312 105.254 121.172 105.788 120.997 106.347C120.819 106.906 120.604 107.491 120.352 108.101C115.177 106.976 109.083 103.934 106.232 99.2547L115.949 89.2648L117.695 82.9353L121.415 87.5108C123.981 88.2355 127.541 88.2864 128.626 90.9425C129.566 92.5335 129.49 95.9077 130.524 97.1957C131.081 97.7549 131.688 98.2634 132.346 98.7209C133.004 99.1785 133.788 99.992 134.699 101.161ZM98.2615 122.361C95.9618 122.345 93.5618 121.543 91.2777 121.522C89.962 121.37 89.4811 121.955 89.8354 123.276L93.0237 136.164C92.9808 138.234 91.8613 139.82 90.215 140.092C88.6128 140.246 87.0016 138.794 86.6471 137.689L82.5478 121.522C82.4467 120.963 82.1303 120.696 81.5989 120.722C81.0676 120.747 80.726 121.014 80.5741 121.522L76.7786 137.613C76.2781 139.123 75.0652 140.111 73.5903 140.13C71.413 140.091 69.9095 138.06 70.3261 136.164L74.9568 117.099L75.3363 105.584C71.3227 104.561 66.2507 101.803 64.2533 97.9584C63.6898 96.7157 64.0982 95.5103 65.1642 94.9081C66.4242 94.3296 67.8494 94.8866 68.3524 95.7469C70.3178 98.8371 74.6564 100.806 77.6136 100.856H100.235C98.8356 107.909 98.0524 114.962 98.2615 122.361ZM103.803 102.153C107.635 107.159 113.157 110.296 119.061 111.533C118.512 113.185 117.778 114.793 117.277 116.299C117.05 116.985 117.113 117.989 117.467 119.311C118.922 124.909 120.521 130.887 121.946 136.088C122.501 140.445 116.478 140.352 115.569 137.689L112.305 125.183C111.404 123.647 109.152 123.289 108.661 125.183L105.701 137.613C104.169 141.451 98.7026 138.871 99.3245 136.164L102.133 124.573C102.184 124.166 102.158 123.759 102.057 123.353C102.106 116.29 102.33 109.064 103.803 102.153Z" fill="#FAEBEB"/>
<circle cx="92.2683" cy="75.0463" r="15.1204" fill="#FAEBEB"/>
<path d="M92.7611 66.9429C92.6672 66.8061 92.5423 66.6945 92.397 66.6173C92.2517 66.5402 92.0902 66.4999 91.9263 66.4999C91.7624 66.4999 91.6009 66.5402 91.4556 66.6173C91.3103 66.6945 91.1854 66.8061 91.0915 66.9429C89.4954 69.1533 88.5763 71.7944 88.4496 74.5347C88.4496 78.3726 90.7246 81.7343 91.9263 83.2377C93.128 81.7343 95.4029 78.3633 95.4029 74.5347C95.2779 71.7941 94.3586 69.1525 92.7611 66.9429ZM96.8798 78.0551C96.2773 80.0463 95.3468 81.9188 94.1279 83.5925H97.3293C100.87 83.0136 103.54 79.3811 104.668 76.5704C104.738 76.4132 104.769 76.2407 104.757 76.0684C104.745 75.8961 104.691 75.7296 104.6 75.5839C104.509 75.4383 104.383 75.3181 104.235 75.2344C104.087 75.1506 103.92 75.1059 103.751 75.1043C102.469 75.0976 101.199 75.3556 100.018 75.8628C98.8371 76.37 97.7695 77.1158 96.8798 78.0551ZM86.9727 78.0551C87.5752 80.0463 88.5058 81.9188 89.7247 83.5925H86.5508C83.0099 83.0136 80.3405 79.3811 79.2122 76.5704C79.1419 76.4132 79.1112 76.2407 79.1231 76.0684C79.1349 75.8961 79.1889 75.7296 79.28 75.5839C79.3712 75.4383 79.4966 75.3181 79.645 75.2344C79.7933 75.1506 79.9599 75.1059 80.1295 75.1043C81.4066 75.1013 82.6712 75.3612 83.8472 75.8683C85.0231 76.3754 86.0863 77.1192 86.9727 78.0551ZM97.4302 75.067C98.3486 74.458 99.3544 73.9981 100.412 73.7036C100.72 72.6615 100.95 71.597 101.1 70.5194C101.123 70.3524 101.105 70.1822 101.048 70.0238C100.992 69.8654 100.897 69.7237 100.774 69.6111C100.651 69.4985 100.502 69.4185 100.341 69.3783C100.181 69.338 100.013 69.3386 99.852 69.3801C98.8044 69.6457 97.7959 70.0508 96.8523 70.5847C97.3008 72.0329 97.4964 73.55 97.4302 75.067ZM83.4319 73.6943C84.4937 73.988 85.5031 74.4513 86.4223 75.067C86.3669 73.5447 86.5749 72.0243 87.0369 70.5754C86.0934 70.0414 85.0848 69.6364 84.0373 69.3708C83.8738 69.3237 83.7012 69.3191 83.5355 69.3573C83.3697 69.3955 83.216 69.4754 83.0883 69.5896C82.9607 69.7038 82.8631 69.8487 82.8045 70.0111C82.746 70.1735 82.7283 70.3482 82.753 70.5194C82.9025 71.5932 83.1294 72.6544 83.4319 73.6943Z" fill="#B3B964"/>
</svg>
